<svg xmlns="http://www.w3.org/2000/svg" viewBox="0 0 18.53 17.2"><title>cart</title><style>.cls-1{fill:#565656;}</style><g id="Layer_2" data-name="Layer 2"><g id="Layer_1-2" data-name="Layer 1"><path  class="cls-1" d="M7.59,13.1a2.05,2.05,0,1,0,2,2A2,2,0,0,0,7.59,13.1Zm0,2.78a.74.74,0,0,1,0-1.47.71.71,0,0,1,.7.73A.72.72,0,0,1,7.59,15.88Z"/><path  class="cls-1" d="M15.64,13.1a2.05,2.05,0,1,0,2,2A2,2,0,0,0,15.64,13.1Zm0,2.78a.74.74,0,0,1,0-1.47.71.71,0,0,1,.7.73A.75.75,0,0,1,15.64,15.88Z"/><path  class="cls-1" d="M18.41,2.57h0a.66.66,0,0,0-.53-.27h-13l-.28-.92A2,2,0,0,0,2.7,0h-2A.65.65,0,0,0,0,.66a.65.65,0,0,0,.66.66h2a.64.64,0,0,1,.63.46l2.4,7.54,0,.07a2.26,2.26,0,0,0,.18,2.08,2.22,2.22,0,0,0,1.84,1h9a.66.66,0,0,0,0-1.32h-9A.84.84,0,0,1,7,10.75a.87.87,0,0,1-.09-.81h7.7a2.41,2.41,0,0,0,2.3-1.69l1.61-5.09A.81.81,0,0,0,18.41,2.57Zm-3.82,6H6.87l-1.58-5H17L15.66,7.85A1.15,1.15,0,0,1,14.59,8.62Z"/></g></g></svg>