<svg xmlns="http://www.w3.org/2000/svg" viewBox="0 0 21.1 20.21"><defs><style>.cls-1{fill:#07C152;}</style></defs><title>line</title><g id="Layer_2" data-name="Layer 2"><g id="Layer_1-2" data-name="Layer 1"><g id="DnQhB3"><path class="cls-1" d="M0,9.69V7.63A8.1,8.1,0,0,1,2.65,2.9,12.28,12.28,0,0,1,15.88,1.19,8.79,8.79,0,0,1,21.1,7.63V9.69A9.57,9.57,0,0,1,17.84,15c-.56.52-1.14,1-1.75,1.48A33.85,33.85,0,0,1,10.7,20c-.29.15-.64.36-1,.1s-.12-.58-.1-.88a1.1,1.1,0,0,1,0-.18c.27-1.58.15-1.68-1.41-2C4.11,16.15,1,14.08,0,9.69ZM10.53,8.38a1,1,0,0,1,.36.4c.56.75,1.12,1.5,1.67,2.26a.57.57,0,0,0,.68.28c.29-.09.33-.34.33-.6V6.88c0-.34-.07-.66-.48-.67s-.5.34-.5.69c0,.64,0,1.28,0,1.92,0,.12.06.29-.08.34S12.29,9,12.22,9c-.58-.77-1.15-1.55-1.72-2.33-.19-.25-.39-.48-.74-.36s-.34.41-.34.7v3.66a1.31,1.31,0,0,0,0,.28.49.49,0,0,0,.51.45.45.45,0,0,0,.46-.49c0-.64,0-1.28,0-1.92A.73.73,0,0,1,10.53,8.38Zm5.45,3h.9c.32,0,.61-.08.61-.47s-.3-.51-.64-.51-.63,0-.94,0-.47-.21-.48-.56.09-.56.5-.54.65,0,1,0,.59-.14.58-.52-.27-.45-.58-.46-.75,0-1.13,0-.32-.36-.34-.62.05-.46.38-.45.72,0,1.08,0,.6-.13.6-.51-.29-.51-.61-.51c-.61,0-1.22,0-1.83,0-.35,0-.61.18-.61.57,0,1.37,0,2.74,0,4.12a.47.47,0,0,0,.5.5ZM3.83,8.77h0v2a.55.55,0,0,0,.63.63H6.35c.29,0,.53-.12.54-.45s-.22-.51-.53-.52a8,8,0,0,0-1,0c-.41,0-.56-.12-.55-.54,0-.93,0-1.87,0-2.81,0-.55-.2-.87-.54-.82-.5.06-.46.47-.46.83C3.83,7.62,3.83,8.2,3.83,8.77Zm4.69.08V6.79c0-.32-.12-.57-.47-.58s-.51.25-.51.59c0,1.32,0,2.65,0,4,0,.34.15.58.52.57s.46-.27.46-.58Z"/></g></g></g></svg>
