<svg xmlns="http://www.w3.org/2000/svg" xmlns:xlink="http://www.w3.org/1999/xlink" viewBox="0 0 128.08 55.59"><defs><style>.cls-1{fill:#919396;}.cls-2{fill:#ff8506;}.cls-3{fill:#c1161d;}.cls-4{fill:url(#linear-gradient);}.cls-5{fill:#58595b;}</style><linearGradient id="linear-gradient" x1="86.29" y1="73.21" x2="-11.79" y2="1.9" gradientUnits="userSpaceOnUse"><stop offset="0.5" stop-color="#0590d5"/><stop offset="0.58" stop-color="#058dd1"/><stop offset="0.66" stop-color="#0483c7"/><stop offset="0.73" stop-color="#0474b4"/><stop offset="0.8" stop-color="#035d9b"/><stop offset="0.86" stop-color="#01417a"/><stop offset="0.91" stop-color="#00275c"/></linearGradient></defs><title>lightandlens-logo</title><g id="Layer_2" data-name="Layer 2"><g id="Layer_1-2" data-name="Layer 1"><path d="M64.89,17.22h5.74v3.64H60.82V5h4.07Z"/><path d="M80.13,17.31v3.55h-8V17.31h2V8.55H72.26V5H80V8.55H78.12v8.76Z"/><path d="M89.93,4.82c3.19,0,6.51,1.67,7.28,5.61h-4a3.24,3.24,0,0,0-3.3-1.9c-2.56,0-3.94,2-3.94,4.41,0,2.62,1.54,4.34,3.94,4.34a3.22,3.22,0,0,0,3.39-1.94H90V11.83h7.49A11.41,11.41,0,0,1,97,16.47c-1.13,3.3-4.14,4.57-7,4.57a7.81,7.81,0,0,1-8.12-8.1A7.83,7.83,0,0,1,89.93,4.82Z"/><path d="M113.83,20.86H109.7V14.5h-4.89v6.36h-4.14V5h4.14v5.75h4.89V5h4.13Z"/><path d="M116.32,8.64V5h11.76V8.64h-3.86V20.86h-4V8.64Z"/><path class="cls-1" d="M82.23,38.71H87.7v3.47H78.35V27.1h3.88Z"/><path class="cls-1" d="M98.69,30.55H93.11v2.13h5.12v3.43H93.11v2.65h5.77v3.42H89.27V27.1h9.42Z"/><path class="cls-1" d="M105.11,34.77v7.41h-4V27h1.4l7.63,7.45V27.1h3.94V42.2h-1.38Z"/><path class="cls-1" d="M124.23,37.74c0-1.05-1.24-1.29-2.75-1.37-3.28-.24-5.43-1.36-5.47-4.64-.13-6.5,11.59-6.5,11.5,0h-3.66c0-2-4-1.83-4.18,0-.09,1.14,1,1.38,2.39,1.53,3,.32,5.92.78,5.92,4.55,0,6.33-12.28,6.44-12.19-.2h3.73C119.52,39.49,124.23,39.51,124.23,37.74Z"/><path class="cls-1" d="M73.15,40.79l-1.94-2c.07-.22.13-.45.18-.68s.26-2.07.26-2.15H70s-.16,1.17-.15,1.2l0,.22-5.19-5.18a2.65,2.65,0,0,1-.45-1.09,2.58,2.58,0,0,1,.07-1.23,2.49,2.49,0,0,1,1-1.37A2.4,2.4,0,0,1,67,28.13a2.45,2.45,0,0,1,1.54.7,2.77,2.77,0,0,1,.75,1.32h1.69a4.25,4.25,0,0,0-3.84-3.69,4,4,0,0,0-2.74.7,4,4,0,0,0-1.71,2.26,4.08,4.08,0,0,0-.16,1.92,4.68,4.68,0,0,0,.52,1.5,5.21,5.21,0,0,0-1.49,1.73,5,5,0,0,0-.65,2.56,5.33,5.33,0,0,0,.71,2.57,5.5,5.5,0,0,0,1.8,1.88,6,6,0,0,0,1.31.6,5.56,5.56,0,0,0,1.44.22h.09a5.34,5.34,0,0,0,2.46-.62,5.52,5.52,0,0,0,1.69-1.42L72,42a.42.42,0,0,0,.14.09l1.14-1.13A.47.47,0,0,0,73.15,40.79ZM68,40.24a3.58,3.58,0,0,1-1.8.47,3.47,3.47,0,0,1-2.58-1.05,3.5,3.5,0,0,1-1.08-2.59,3.43,3.43,0,0,1,.49-1.8,3.7,3.7,0,0,1,1.08-1.18l5.07,5.08A3.67,3.67,0,0,1,68,40.24Z"/><path class="cls-1" d="M48,46.91H0V0H48ZM1.87,45H46.11V1.87H1.87Z"/><polygon class="cls-2" points="46.11 5.34 46.11 1.87 0 10.62 0 19.16 46.11 5.34"/><polygon class="cls-2" points="46.97 1.72 46.83 1.75 46.97 1.75 46.97 1.72"/><polygon class="cls-3" points="0 29.43 46.11 10.17 46.11 7.65 0 22.22 0 29.43"/><polygon class="cls-4" points="0 41.62 46.11 15.2 46.11 12.85 0 33.61 0 41.62"/><polygon class="cls-5" points="0 46.13 0 55.59 46.11 22.4 46.11 19.06 0 46.13"/></g></g></svg>