<?xml version="1.0" encoding="utf-8"?>
<!-- Generator: Adobe Illustrator 23.0.2, SVG Export Plug-In . SVG Version: 6.00 Build 0)  -->
<svg version="1.1" id="Layer_1" xmlns="http://www.w3.org/2000/svg" xmlns:xlink="http://www.w3.org/1999/xlink" x="0px" y="0px"
	 viewBox="0 0 22.2 24.2" style="enable-background:new 0 0 22.2 24.2;" xml:space="preserve">
<style type="text/css">
	.st0{stroke:#565656;stroke-width:0.5;stroke-miterlimit:10;}
</style>
<g>
	<path class="st0" d="M11.1,13.8C11.1,13.8,11,13.8,11.1,13.8c-3.8,0-6.8-3.1-6.8-6.8c0-3.8,2.9-6.7,6.7-6.8h0c1.9,0,3.6,0.7,4.9,2
		c1.3,1.3,2,3,2,4.8C17.9,10.8,14.8,13.8,11.1,13.8z M11.1,1.2C7.8,1.2,5.2,3.8,5.2,7c0,3.2,2.6,5.8,5.8,5.9l0.1,0
		c3.2,0,5.9-2.7,5.9-5.9c0-1.6-0.6-3-1.7-4.1C14.1,1.8,12.6,1.2,11.1,1.2z"/>
	<path class="st0" d="M21.4,24H0.8c-0.3,0-0.5-0.2-0.5-0.5c-0.4-3.8,3-8.4,6.6-9.1c0.3-0.1,0.8,0,1.1,0.2c2,1,4,1,6.1,0
		c0.4-0.2,0.9-0.3,1.3-0.2c3.7,0.9,6.8,5.1,6.6,9C21.9,23.8,21.7,24,21.4,24z M1.3,22.9h19.6c-0.1-3.3-2.7-6.7-5.8-7.5
		c-0.1,0-0.4,0-0.6,0.1c-2.3,1.1-4.7,1.1-7,0c-0.1-0.1-0.3-0.1-0.4-0.1C4.1,16,1.3,19.8,1.3,22.9z"/>
</g>
</svg>
